<svg width="163" height="28" viewBox="0 0 163 28" fill="none" xmlns="http://www.w3.org/2000/svg">
<g clip-path="url(#clip0_1_2)">
<path fill-rule="evenodd" clip-rule="evenodd" d="M147.808 12.0835L147.84 12.2064H139.296L139.314 12.1033C139.392 11.7457 139.513 11.3818 139.676 11.0278C140.343 9.58099 141.705 8.29997 143.664 8.29997C146.337 8.29997 147.412 10.6142 147.808 12.0835ZM150.841 13.0497C150.841 8.74331 147.823 5.61768 143.664 5.61768C139.318 5.61768 136.283 8.84395 136.283 13.4636C136.283 18.0829 139.318 21.3094 143.664 21.3094C146.359 21.3094 148.365 20.5718 149.98 18.9863C150.31 18.6513 150.492 18.2545 150.492 17.8691C150.492 17.1184 149.988 16.3208 149.054 16.3208C148.648 16.3208 148.234 16.5229 147.916 16.8779C146.876 18.0875 145.565 18.6271 143.664 18.6271C141.124 18.6271 139.658 16.6178 139.33 14.6864H149.228C150.238 14.6864 150.841 14.0745 150.841 13.0497Z" fill="#46F5A0"/>
<path fill-rule="evenodd" clip-rule="evenodd" d="M32.9209 18.6271C30.5051 18.6271 28.8819 16.5519 28.8819 13.4636C28.8819 10.3752 30.5051 8.30011 32.9209 8.30011C35.3368 8.30011 36.9598 10.3752 36.9598 13.4636C36.9598 16.5519 35.3368 18.6271 32.9209 18.6271ZM38.3397 5.91326C37.6052 5.91326 37.0833 6.40631 36.9205 7.22474C35.8728 6.04646 34.2002 5.61764 32.9209 5.61764C28.3428 5.61764 25.9474 9.56468 25.9474 13.4636C25.9474 15.5672 26.565 17.4994 27.6865 18.904C28.9433 20.4775 30.7533 21.3094 32.9209 21.3094C34.1501 21.3094 35.7422 20.9136 36.7944 19.8376C36.8374 19.7936 36.8794 19.7486 36.9205 19.7024C37.0833 20.5205 37.6052 21.0139 38.3397 21.0139C39.2841 21.0139 39.8943 20.3712 39.8943 19.3769V7.55012C39.8943 6.55579 39.2841 5.91326 38.3397 5.91326Z" fill="#46F5A0"/>
<path fill-rule="evenodd" clip-rule="evenodd" d="M95.1708 18.6271C92.6287 18.6271 90.9862 16.6003 90.9862 13.4636C90.9862 10.3269 92.6287 8.30011 95.1708 8.30011C97.7129 8.30011 99.3556 10.3269 99.3556 13.4636C99.3556 16.6003 97.7129 18.6271 95.1708 18.6271ZM95.1708 5.61764C90.9791 5.61764 88.0518 8.84392 88.0518 13.4636C88.0518 18.0831 90.9791 21.3094 95.1708 21.3094C99.3625 21.3094 102.29 18.0831 102.29 13.4636C102.29 8.84392 99.3625 5.61764 95.1708 5.61764Z" fill="#46F5A0"/>
<path fill-rule="evenodd" clip-rule="evenodd" d="M111.465 18.6565C108.954 18.6565 107.513 16.7639 107.513 13.4636C107.513 10.1822 108.954 8.30009 111.465 8.30009C113.976 8.30009 115.417 10.1822 115.417 13.4636C115.417 16.7639 113.976 18.6565 111.465 18.6565ZM111.436 5.61762C110.053 5.61762 108.338 6.11715 107.417 7.22367C107.216 6.45565 106.669 5.91324 106.046 5.91324C105.21 5.91324 104.579 6.60425 104.579 7.52052V25.3197C104.579 26.236 105.21 26.927 106.046 26.927C106.883 26.927 107.513 26.236 107.513 25.3197V19.502C108.333 20.4207 109.632 21.3093 111.436 21.3093C115.637 21.3093 118.351 18.2297 118.351 13.4636C118.351 8.55073 115.766 5.61762 111.436 5.61762Z" fill="#46F5A0"/>
<path fill-rule="evenodd" clip-rule="evenodd" d="M127.656 18.6565C125.144 18.6565 123.704 16.7639 123.704 13.4636C123.704 10.1822 125.144 8.30009 127.656 8.30009C130.167 8.30009 131.607 10.1822 131.607 13.4636C131.607 16.7639 130.167 18.6565 127.656 18.6565ZM127.627 5.61762C126.243 5.61762 124.528 6.11715 123.607 7.22367C123.407 6.45565 122.86 5.91324 122.237 5.91324C121.401 5.91324 120.77 6.60425 120.77 7.52052V25.3197C120.77 26.236 121.401 26.927 122.237 26.927C123.073 26.927 123.704 26.236 123.704 25.3197V19.502C124.523 20.4207 125.619 21.3093 127.627 21.3093C131.828 21.3093 134.542 18.2297 134.542 13.4636C134.542 8.55073 131.957 5.61762 127.627 5.61762Z" fill="#46F5A0"/>
<mask id="mask0_1_2" style="mask-type:alpha" maskUnits="userSpaceOnUse" x="153" y="5" width="10" height="17">
<path d="M162.084 5.61769V21.0138H153.646V5.61769H162.084Z" fill="white"/>
</mask>
<g mask="url(#mask0_1_2)">
<path fill-rule="evenodd" clip-rule="evenodd" d="M159.309 5.61769C159.971 5.61769 160.638 5.75492 161.244 5.99173C161.747 6.18811 162.084 6.67346 162.084 7.22059C162.084 8.09871 161.244 8.74613 160.421 8.47379C160.076 8.35967 159.704 8.29999 159.309 8.29999C157.32 8.29999 156.581 9.32302 156.581 12.0739V19.4065C156.581 20.3228 155.95 21.0138 155.114 21.0138C154.264 21.0138 153.646 20.338 153.646 19.4065V11.4825C153.646 7.53599 155.499 5.61769 159.309 5.61769Z" fill="#46F5A0"/>
</g>
<path fill-rule="evenodd" clip-rule="evenodd" d="M22.4536 5.61769C23.1159 5.61769 23.7825 5.75492 24.3887 5.99173C24.8917 6.18811 25.2282 6.67346 25.2282 7.22059C25.2282 8.09871 24.3883 8.74613 23.5657 8.47379C23.2202 8.35967 22.8487 8.29999 22.4536 8.29999C20.465 8.29999 19.7256 9.32302 19.7256 12.0739V19.4065C19.7256 20.3228 19.0948 21.0138 18.2583 21.0138C17.4081 21.0138 16.7912 20.338 16.7912 19.4065V11.4825C16.7912 7.53599 18.6433 5.61769 22.4536 5.61769Z" fill="#46F5A0"/>
<path fill-rule="evenodd" clip-rule="evenodd" d="M75.946 7.47513V5.27907V1.60734C75.946 0.690726 75.3152 6.86646e-05 74.4787 6.86646e-05C73.6423 6.86646e-05 73.0116 0.690726 73.0116 1.60734V19.4064C73.0116 20.3227 73.6423 21.0138 74.4787 21.0138C75.3152 21.0138 75.946 20.3227 75.946 19.4064V14.2006V13.8479V7.47513Z" fill="#46F5A0"/>
<path fill-rule="evenodd" clip-rule="evenodd" d="M79.8975 5.61769C79.46 5.61769 79.0209 5.67825 78.5987 5.78782C78.0303 5.93519 77.6424 6.47025 77.6424 7.0657C77.6424 7.9053 78.3986 8.52017 79.2114 8.36387C79.4312 8.32169 79.6602 8.29999 79.8975 8.29999C81.8862 8.29999 82.6255 9.32285 82.6255 12.0739V19.4065C82.6255 20.3228 83.2564 21.0138 84.0928 21.0138C84.943 21.0138 85.5601 20.3378 85.5601 19.4065V11.4825C85.5601 7.53599 83.708 5.61769 79.8975 5.61769Z" fill="#46F5A0"/>
<mask id="mask1_1_2" style="mask-type:alpha" maskUnits="userSpaceOnUse" x="0" y="5" width="15" height="17">
<path d="M0 21.3094V5.61764H14.2382V21.3094H0Z" fill="white"/>
</mask>
<g mask="url(#mask1_1_2)">
<path fill-rule="evenodd" clip-rule="evenodd" d="M7.11901 18.6271C4.57693 18.6271 2.9344 16.6003 2.9344 13.4636C2.9344 10.3269 4.57693 8.30011 7.11901 8.30011C9.66127 8.30011 11.3038 10.3269 11.3038 13.4636C11.3038 16.6003 9.66127 18.6271 7.11901 18.6271ZM7.11901 5.61764C2.92733 5.61764 -3.8147e-05 8.84392 -3.8147e-05 13.4636C-3.8147e-05 18.0831 2.92733 21.3094 7.11901 21.3094C11.3107 21.3094 14.2382 18.0831 14.2382 13.4636C14.2382 8.84392 11.3107 5.61764 7.11901 5.61764Z" fill="#46F5A0"/>
</g>
<path fill-rule="evenodd" clip-rule="evenodd" d="M12.8186 22.9919C12.4112 22.5757 11.7657 22.5253 11.2833 22.8727C10.1683 23.6758 8.79779 24.1069 7.3179 24.1191C7.30462 24.1195 7.29186 24.1203 7.27892 24.1216L7.25305 24.1231L7.22736 24.1216C7.21459 24.1203 7.20183 24.1195 7.18855 24.1191H7.18355C7.17044 24.1195 7.15751 24.1203 7.14475 24.1216L7.11905 24.1231L7.09318 24.1216C7.08025 24.1203 7.06748 24.1195 7.053 24.1191C5.57448 24.1069 4.20358 23.6758 3.08879 22.8727C2.60676 22.5255 1.96123 22.5757 1.55353 22.9921C1.11979 23.4349 1.09289 24.1314 1.49093 24.612C2.79164 26.1834 4.79047 27.0487 7.11905 27.0487H7.25305C9.58163 27.0487 11.5805 26.1834 12.8812 24.6122C13.2792 24.1314 13.2523 23.4349 12.8186 22.9919Z" fill="#46F5A0"/>
<path fill-rule="evenodd" clip-rule="evenodd" d="M49.9289 12.1615C47.6912 11.8322 46.3044 11.3975 46.3044 10.2486C46.3044 8.56011 48.1232 8.3079 49.2071 8.3079C50.36 8.3079 51.3398 8.72271 52.1402 9.29523C52.6833 9.68379 53.4088 9.67678 53.9252 9.25252C54.6812 8.63152 54.6524 7.43031 53.8434 6.88247C52.6107 6.04759 51.0204 5.6256 49.2071 5.6256C46.3017 5.6256 43.37 7.09146 43.37 10.3671C43.37 13.6595 46.3418 14.3568 49.1268 14.7519L49.2213 14.7655C51.1466 15.0445 52.8092 15.2852 52.8092 16.4577C52.8092 18.2573 50.9297 18.635 49.3529 18.635C48.2001 18.635 47.2204 18.2204 46.42 17.6477C45.8769 17.2591 45.1512 17.2661 44.6348 17.6906C43.8789 18.3116 43.9075 19.5126 44.7166 20.0605C45.9495 20.8953 47.4815 21.3173 49.2946 21.3173C53.152 21.3173 55.7436 19.3168 55.7436 16.3395C55.7436 12.9776 52.6539 12.5439 49.9289 12.1615Z" fill="#46F5A0"/>
<path fill-rule="evenodd" clip-rule="evenodd" d="M64.3901 12.1615C62.1524 11.8322 60.7656 11.3975 60.7656 10.2486C60.7656 8.56011 62.5842 8.3079 63.6683 8.3079C64.8212 8.3079 65.801 8.72271 66.6012 9.29523C67.1445 9.68379 67.87 9.67678 68.3864 9.25252C69.1423 8.63152 69.1136 7.43031 68.3046 6.88247C67.0717 6.04759 65.4814 5.6256 63.6683 5.6256C60.7629 5.6256 57.8312 7.09146 57.8312 10.3671C57.8312 13.6595 60.8029 14.3568 63.588 14.7519L63.6825 14.7655C65.6077 15.0445 67.2704 15.2852 67.2704 16.4577C67.2704 18.2573 65.3907 18.635 63.8141 18.635C62.6613 18.635 61.6814 18.2204 60.8812 17.6477C60.3379 17.2591 59.6124 17.2661 59.096 17.6906C58.3401 18.3116 58.3687 19.5126 59.1778 20.0605C60.4107 20.8953 61.9427 21.3173 63.7558 21.3173C67.613 21.3173 70.2048 19.3168 70.2048 16.3395C70.2048 12.9776 67.1151 12.5439 64.3901 12.1615Z" fill="#46F5A0"/>
</g>
<defs>
<clipPath id="clip0_1_2">
<rect width="163" height="28" fill="white"/>
</clipPath>
</defs>
</svg>
